<?xml version="1.0" standalone="no"?>
<!DOCTYPE svg PUBLIC "-//W3C//DTD SVG 20010904//EN"
 "http://www.w3.org/TR/2001/REC-SVG-20010904/DTD/svg10.dtd">
<svg version="1.0" xmlns="http://www.w3.org/2000/svg"
 width="532.000000pt" height="532.000000pt" viewBox="0 0 532.000000 532.000000"
 preserveAspectRatio="xMidYMid meet">
<metadata>
Created by potrace 1.14, written by Peter Selinger 2001-2017
</metadata>
<g transform="translate(0.000000,532.000000) scale(0.100000,-0.100000)"
fill="#000000" stroke="none">
<path d="M1766 5253 c-2 -2 -14 -6 -26 -8 -29 -5 -27 -3 -42 -50 l-13 -40
-105 -2 c-58 0 -124 -6 -147 -12 -46 -12 -163 -77 -163 -91 0 -5 -5 -21 -12
-37 -6 -15 -13 -39 -15 -53 -2 -13 -9 -27 -14 -31 -5 -3 -12 -30 -14 -60 -3
-30 -7 -72 -9 -94 -8 -66 -16 -240 -21 -415 -2 -91 -7 -196 -10 -235 -3 -38
-7 -90 -9 -115 -1 -25 -6 -51 -10 -58 -4 -7 -4 -12 1 -12 4 0 6 -30 5 -67 -2
-38 -4 -83 -3 -101 0 -18 -4 -30 -10 -27 -5 4 -9 -4 -9 -17 0 -19 2 -20 11 -8
9 12 9 11 4 -5 -13 -33 -13 -40 -30 -505 -3 -74 -7 -148 -9 -165 -6 -43 -16
-177 -21 -265 -3 -54 -8 -78 -20 -86 -9 -7 -17 -21 -18 -33 -1 -12 -7 -21 -14
-21 -16 0 -16 -2 -3 -34 7 -18 6 -26 -1 -26 -8 0 -8 -4 0 -13 8 -10 7 -17 -1
-25 -9 -9 -9 -12 0 -12 8 0 10 -9 7 -22 -5 -23 17 -102 27 -93 2 3 5 -10 6
-29 1 -19 3 -40 4 -47 2 -8 -3 -13 -11 -11 -11 2 -12 0 -2 -11 6 -8 11 -28 11
-43 -1 -16 -1 -87 -1 -159 1 -72 -4 -134 -9 -139 -6 -6 -10 -15 -10 -21 0 -5
5 -3 10 5 7 12 9 10 7 -7 0 -12 -5 -19 -9 -17 -4 3 -8 -4 -8 -16 0 -13 4 -19
12 -14 7 5 8 3 2 -7 -14 -22 -15 -111 -1 -128 7 -9 8 -12 1 -8 -8 4 -12 -9
-13 -41 -6 -158 -6 -230 0 -226 4 2 11 0 14 -6 4 -6 1 -9 -6 -8 -14 3 -16 -29
-22 -280 -2 -101 1 -131 10 -128 7 3 10 -1 6 -10 -3 -7 -8 -14 -12 -14 -13 0
-6 -87 8 -104 12 -14 12 -16 -3 -10 -18 7 -21 -3 -6 -26 5 -9 5 -19 -1 -26
-17 -21 -19 -54 -3 -47 9 3 14 -1 14 -12 0 -11 -5 -15 -15 -11 -19 7 -21 -44
-3 -62 10 -10 10 -14 0 -21 -16 -10 -14 -311 2 -311 6 0 5 -4 -2 -8 -16 -11
-10 -51 9 -63 11 -7 11 -9 -3 -9 -11 0 -18 -8 -18 -21 0 -16 4 -19 23 -14 21
6 21 6 3 -10 -12 -9 -21 -29 -21 -51 -2 -24 1 -32 8 -25 14 14 37 14 37 1 0
-5 -7 -10 -15 -10 -23 0 -18 -27 6 -33 12 -3 18 -10 14 -16 -3 -6 -1 -11 5
-11 7 0 10 7 6 15 -3 8 -1 15 5 15 6 0 7 6 3 13 -4 6 2 4 14 -7 12 -10 19 -23
16 -27 -3 -5 10 -9 29 -9 32 0 64 -20 52 -32 -3 -2 2 -5 10 -5 8 0 15 5 15 11
1 6 10 0 21 -14 23 -27 28 -28 39 -10 5 8 12 7 24 -5 15 -16 21 -9 17 17 0 5
4 8 10 8 6 0 8 -9 4 -20 -6 -19 -2 -20 60 -20 36 0 64 4 61 8 -2 4 5 9 17 9
17 2 19 0 7 -7 -8 -5 -10 -10 -4 -10 5 0 14 4 20 9 5 5 46 11 90 14 90 7 174
38 182 69 2 10 8 18 12 18 5 0 11 12 14 28 9 45 27 205 26 232 -4 134 -3 200
3 200 5 0 5 5 1 11 -3 6 -6 45 -5 87 2 94 2 651 0 1187 -1 220 1 411 3 425 3
14 19 34 36 45 17 11 32 27 35 37 6 21 61 50 81 42 8 -3 21 -19 28 -35 7 -16
16 -29 20 -29 12 0 57 -53 69 -82 6 -15 16 -26 21 -25 5 1 15 -7 21 -18 20
-34 55 -74 60 -69 2 3 9 -8 14 -23 6 -15 23 -42 39 -59 36 -38 84 -110 84
-124 0 -6 7 -13 15 -17 9 -3 27 -27 40 -54 14 -26 30 -52 37 -56 7 -4 19 -20
27 -35 8 -15 18 -25 23 -22 5 3 8 0 7 -7 -4 -22 20 -71 31 -64 6 4 10 3 9 -2
-3 -12 23 -63 32 -63 4 0 10 6 13 13 3 6 3 -1 1 -16 -2 -18 1 -30 10 -33 8 -3
28 -33 45 -66 18 -34 43 -73 56 -87 13 -14 24 -32 24 -39 0 -7 7 -15 15 -18 8
-4 15 -12 15 -20 0 -24 23 -64 37 -64 7 0 13 -7 13 -15 0 -8 4 -15 10 -15 5 0
12 -11 16 -25 3 -14 10 -25 15 -25 5 0 9 -6 9 -14 0 -16 34 -31 49 -22 5 3 11
-1 14 -9 4 -8 15 -12 26 -10 24 5 39 -13 17 -21 -8 -3 -25 2 -39 11 -24 15
-24 15 -20 -10 3 -14 9 -25 14 -25 5 0 6 8 3 17 -5 15 -3 15 10 -1 9 -11 16
-16 16 -10 1 11 24 -27 26 -43 1 -7 -3 -13 -9 -13 -8 0 -7 -3 1 -9 8 -4 14
-12 13 -17 0 -5 7 -8 15 -8 10 1 12 -2 6 -10 -5 -6 -6 -20 -1 -31 5 -14 8 -16
9 -5 2 8 2 18 2 21 -1 3 6 6 14 6 8 0 14 -8 14 -18 0 -9 6 -19 13 -22 9 -3 9
-7 -2 -20 -11 -15 -11 -17 2 -17 9 0 22 6 30 14 8 8 19 11 26 6 9 -5 8 -9 -6
-15 -17 -6 -16 -8 5 -16 27 -10 30 -33 3 -26 -13 3 -18 0 -15 -8 3 -8 14 -11
27 -7 22 5 22 5 -1 -16 -23 -20 -23 -21 -5 -43 10 -12 28 -33 41 -46 12 -13
22 -30 22 -38 0 -8 5 -17 10 -20 6 -3 10 -1 10 4 0 6 4 11 10 11 5 0 7 -7 4
-15 -4 -10 0 -15 10 -15 12 0 15 -6 11 -22 -4 -17 1 -28 20 -42 14 -10 25 -27
25 -37 0 -10 8 -23 18 -28 9 -6 14 -11 9 -11 -4 0 0 -15 10 -32 9 -18 17 -35
18 -38 0 -3 12 -18 27 -33 18 -19 28 -24 31 -15 5 13 11 -15 8 -38 -1 -6 12
-25 28 -42 15 -17 26 -34 23 -37 -3 -3 0 -5 6 -5 7 0 12 -7 12 -15 0 -8 9 -24
20 -35 11 -11 20 -22 20 -25 0 -3 0 -12 0 -21 0 -8 4 -13 8 -10 5 3 26 -24 47
-60 21 -36 46 -71 56 -77 11 -7 19 -20 19 -29 0 -10 4 -18 9 -18 5 0 12 -12
15 -26 6 -21 9 -24 21 -14 8 7 12 17 8 24 -4 6 1 5 10 -3 22 -17 22 -32 1 -24
-12 4 -15 2 -12 -8 10 -29 111 -7 127 28 8 18 16 23 30 18 14 -4 21 0 27 17 7
22 7 22 14 3 7 -18 8 -19 15 -2 4 9 16 17 27 17 10 0 16 4 13 10 -3 5 0 10 7
10 9 0 9 3 -2 10 -13 8 -12 10 3 10 9 0 17 -5 17 -10 0 -19 36 12 49 42 10 22
18 28 33 25 14 -4 18 -1 14 8 -3 8 5 21 17 30 12 8 23 11 25 6 4 -13 40 -2 46
14 3 9 -2 12 -16 10 l-21 -4 21 19 c12 11 36 22 53 24 18 2 38 11 46 21 7 11
13 16 13 12 0 -4 9 -3 20 3 12 7 18 16 13 23 -4 7 -8 22 -9 35 -1 27 -6 33
-33 35 -16 1 -19 6 -15 24 5 17 2 23 -11 23 -15 0 -15 1 -1 16 23 22 20 37 -4
24 -16 -9 -20 -8 -20 5 0 8 5 15 12 15 6 0 3 6 -7 14 -11 8 -24 12 -28 9 -5
-3 -3 -9 4 -14 10 -6 10 -9 2 -9 -20 0 -24 17 -8 33 8 9 15 20 15 26 0 6 4 11
9 11 5 0 7 -10 4 -22 l-5 -23 16 23 c21 27 13 46 -14 32 -25 -13 -30 -13 -30
4 0 9 -7 12 -19 9 -10 -3 -22 0 -25 6 -4 6 0 11 8 11 9 0 16 6 16 14 0 9 -7
13 -20 11 -11 -2 -20 1 -20 7 0 6 -7 5 -17 -3 -11 -10 -14 -10 -9 -1 4 6 2 12
-3 12 -6 0 -11 9 -11 20 0 12 5 17 13 14 8 -3 20 3 28 13 7 10 10 15 5 11 -8
-7 -66 17 -66 28 0 3 6 2 13 -2 9 -6 9 -4 -1 8 -11 14 -10 18 5 27 17 9 17 10
0 17 -15 5 -16 9 -5 16 10 7 8 8 -7 7 -41 -3 -52 2 -63 26 -14 29 0 41 22 19
15 -14 16 -12 16 21 0 28 -5 38 -19 42 -13 3 -18 10 -14 21 5 11 2 14 -10 9
-11 -4 -14 -2 -10 9 3 8 -1 14 -10 14 -10 0 -14 9 -12 30 1 16 -1 27 -5 25 -5
-3 -17 11 -29 30 -15 26 -25 33 -38 28 -16 -6 -17 -5 -3 12 9 11 10 16 3 11
-9 -5 -13 0 -13 17 0 34 -41 68 -84 70 -27 2 -36 6 -36 20 0 15 11 22 33 18 4
0 7 7 7 16 0 13 -3 14 -12 5 -18 -18 -28 -15 -28 9 0 13 -4 18 -13 13 -9 -6
-9 -4 1 8 11 14 11 21 0 40 -18 32 -30 39 -48 25 -12 -9 -13 -8 -4 2 9 10 8
21 -4 44 -8 18 -21 44 -28 58 -8 14 -11 29 -8 31 3 3 -8 18 -24 34 -15 16 -31
37 -35 47 -4 11 -12 15 -18 11 -8 -4 -9 -3 -5 4 4 7 -4 22 -18 36 -14 13 -26
30 -26 37 -1 19 -24 49 -38 49 -6 0 -9 6 -6 14 3 7 -6 26 -20 41 -14 15 -24
31 -21 35 3 4 -2 14 -11 21 -8 7 -21 26 -28 43 -8 17 -25 44 -39 60 -14 17
-24 32 -22 36 2 3 -9 22 -25 43 -17 24 -31 34 -35 27 -7 -11 -46 49 -39 61 2
3 -3 6 -11 6 -8 0 -12 -4 -9 -9 3 -4 -4 -8 -15 -8 -17 0 -20 6 -17 45 3 46
-15 78 -30 54 -4 -8 -3 -9 4 -5 15 9 15 -7 0 -22 -8 -8 -8 -15 0 -24 8 -11 7
-14 -8 -15 -17 -2 -20 4 -18 35 2 70 -1 98 -12 82 -8 -12 -10 -12 -15 2 -4 10
-4 21 -1 27 11 17 -6 41 -28 41 -24 0 -59 19 -38 21 6 1 17 2 22 3 6 0 10 6 9
11 0 6 -9 9 -20 8 -10 -2 -19 2 -19 8 0 5 -4 8 -9 4 -6 -3 -9 4 -8 15 1 11 5
20 10 20 5 0 4 7 -3 15 -7 8 -20 15 -29 15 -9 0 -12 3 -6 8 10 6 11 12 6 40
-2 16 -42 52 -51 47 -6 -3 -7 0 -4 8 3 8 -3 23 -13 32 -18 19 -19 22 -22 50 0
8 -10 23 -22 33 -11 9 -29 34 -40 55 -11 20 -28 43 -39 49 -11 7 -20 21 -20
30 0 10 -4 18 -10 18 -5 0 -2 9 7 20 10 11 23 20 29 20 7 0 22 11 35 25 13 13
28 25 33 25 5 0 24 11 42 25 19 14 35 25 36 24 2 -2 17 11 34 27 18 16 52 47
78 69 25 22 46 46 46 53 0 6 5 12 11 12 5 0 7 -6 3 -12 -5 -9 -2 -9 9 1 9 7
17 20 17 27 0 8 7 14 16 14 9 0 12 5 8 12 -4 6 -3 9 2 5 5 -3 20 0 33 7 15 9
20 16 12 20 -22 14 -10 31 23 32 24 0 43 9 65 31 16 17 27 33 24 37 -6 6 12
10 30 7 16 -2 6 28 -10 32 -10 2 -8 3 5 2 12 -1 25 2 28 6 3 5 0 9 -5 9 -6 0
-11 7 -11 15 0 9 9 15 21 15 19 0 20 2 8 18 -12 15 -12 16 1 6 16 -11 60 -17
60 -7 0 3 -7 11 -16 18 -15 11 -15 12 5 18 11 3 21 2 21 -2 0 -4 7 -8 15 -8 8
0 15 6 15 14 0 7 6 13 13 14 6 1 1 5 -13 9 -22 7 -21 8 12 9 39 1 88 38 88 67
0 8 4 13 9 10 5 -3 11 1 15 9 3 8 12 15 19 15 8 0 20 13 27 30 7 16 17 28 24
27 6 -1 10 4 8 11 -1 8 2 11 7 8 5 -3 19 10 32 29 13 19 27 35 32 35 4 0 7 7
7 15 0 8 4 15 9 15 5 0 19 27 31 60 17 45 21 73 17 108 -6 53 -51 162 -67 162
-6 0 -13 8 -17 18 -7 19 -59 81 -70 84 -16 4 -51 46 -45 54 4 4 2 4 -5 0 -7
-4 -28 9 -50 32 -21 21 -54 49 -73 62 -19 13 -40 31 -47 40 -7 8 -13 11 -13 7
0 -5 -18 5 -39 22 -21 17 -42 31 -45 31 -3 0 -22 16 -42 35 -19 19 -42 35 -49
35 -8 0 -18 6 -22 14 -4 7 -31 25 -60 40 -28 14 -54 30 -58 36 -4 6 -11 8 -16
5 -5 -4 -9 -2 -9 3 0 5 -22 21 -49 35 -27 15 -54 33 -61 42 -6 8 -43 29 -81
47 -38 18 -69 36 -69 40 0 4 -29 21 -65 38 -36 17 -63 35 -60 39 2 5 -2 12
-11 15 -8 3 -12 2 -9 -4 11 -18 -3 -11 -31 15 -14 13 -30 22 -35 19 -5 -3 -9
0 -9 5 0 6 -6 11 -13 11 -8 0 -22 9 -32 20 -10 12 -24 19 -31 16 -7 -3 -14 -1
-16 3 -4 9 -112 61 -128 61 -6 0 -8 5 -5 10 3 6 0 10 -7 10 -7 0 -33 10 -58
22 -25 12 -55 26 -67 31 -12 6 -20 14 -17 19 3 4 -3 8 -14 8 -10 0 -47 11 -83
25 -35 14 -75 27 -88 30 -13 2 -27 9 -30 14 -4 5 -20 12 -36 16 -17 4 -56 16
-88 26 -50 17 -120 23 -131 12z m223 -519 c18 -9 35 -22 37 -29 3 -7 18 -15
33 -18 16 -3 36 -13 44 -22 9 -8 21 -15 27 -15 6 0 13 -6 16 -14 3 -8 28 -24
55 -37 27 -13 49 -28 49 -33 0 -4 9 -6 21 -3 17 5 18 3 7 -11 -10 -12 -10 -14
0 -8 7 4 19 0 28 -8 9 -9 20 -14 25 -11 5 4 15 3 22 -2 6 -4 14 -8 17 -8 23
-3 49 -18 44 -26 -3 -5 -10 -7 -15 -4 -5 3 -6 -1 -3 -10 4 -9 13 -14 20 -11 7
3 16 1 19 -4 3 -4 -1 -11 -7 -13 -7 -3 -3 -6 10 -6 13 -1 21 3 18 7 -3 5 1 9
9 9 10 0 11 -5 4 -18 -8 -15 -5 -20 15 -25 13 -3 26 -14 29 -25 3 -13 11 -17
21 -13 9 3 16 2 16 -4 0 -5 22 -20 49 -33 27 -13 48 -26 45 -30 -2 -4 9 -12
26 -17 19 -7 32 -7 36 -1 7 12 34 -8 34 -25 0 -6 -4 -5 -9 3 -5 8 -11 9 -15 3
-8 -14 42 -45 64 -39 13 3 17 0 13 -9 -3 -8 7 -21 26 -31 17 -10 31 -21 31
-25 0 -5 7 -8 15 -8 8 0 19 -9 25 -20 6 -11 28 -29 50 -40 22 -11 44 -29 50
-40 6 -11 16 -20 23 -20 7 -1 22 -9 35 -20 l23 -19 -22 -25 c-13 -14 -29 -26
-36 -26 -7 0 -13 -4 -13 -10 0 -5 -6 -10 -13 -10 -7 0 -23 -10 -35 -22 -32
-35 -82 -73 -95 -73 -7 0 -16 -9 -22 -19 -5 -11 -28 -28 -50 -40 -22 -11 -45
-27 -51 -35 -6 -8 -26 -22 -45 -32 -19 -10 -45 -24 -59 -31 -14 -7 -32 -21
-42 -30 -9 -9 -36 -27 -59 -39 -23 -11 -47 -25 -53 -30 -27 -23 -102 -69 -112
-69 -6 0 -17 -7 -25 -16 -7 -8 -30 -24 -51 -35 -21 -11 -48 -29 -58 -39 -11
-11 -20 -15 -20 -9 0 5 -12 -3 -26 -18 -15 -15 -30 -27 -35 -26 -5 2 -9 -2 -9
-8 0 -5 -4 -8 -9 -5 -4 3 -23 -8 -41 -24 -19 -17 -39 -30 -46 -30 -7 0 -25
-17 -40 -37 -38 -53 -162 -111 -149 -70 7 23 15 131 16 234 1 57 5 101 9 98 3
-2 7 2 7 10 0 8 -4 12 -9 9 -4 -3 -8 6 -8 20 0 14 6 26 13 26 8 0 7 4 -3 10
-13 9 -13 10 0 10 9 0 11 3 5 8 -13 9 -18 35 -5 27 5 -3 10 -1 10 4 0 6 -6 11
-12 12 -10 0 -10 2 0 6 10 4 10 8 0 21 -7 9 -8 13 -2 9 7 -4 12 2 12 18 0 16
-5 22 -12 18 -6 -4 -6 0 2 9 7 9 12 43 12 84 0 68 1 89 15 254 4 47 8 120 9
162 0 43 3 78 6 78 3 0 5 37 6 83 0 66 11 334 13 345 2 6 21 1 50 -14z m1603
-1096 c-9 -9 -12 -7 -12 12 0 19 3 21 12 12 9 -9 9 -15 0 -24z m-2502 -1123
c0 -8 -7 -15 -15 -15 -16 0 -20 12 -8 23 11 12 23 8 23 -8z m1985 -173 c-3 -3
-11 0 -18 7 -9 10 -8 11 6 5 10 -3 15 -9 12 -12z m732 -1109 c1 -19 -1 -22 -8
-12 -11 17 -12 39 -1 39 4 0 8 -12 9 -27z m-817 -88 c0 -8 -4 -15 -8 -15 -5 0
-9 7 -9 15 0 8 4 15 9 15 4 0 8 -7 8 -15z m900 -31 c0 -8 -4 -12 -10 -9 -5 3
-10 10 -10 16 0 5 5 9 10 9 6 0 10 -7 10 -16z m-2813 -340 c-3 -3 -12 -4 -19
-1 -8 3 -5 6 6 6 11 1 17 -2 13 -5z m3095 -396 c-20 -20 -33 -3 -15 19 15 18
19 20 21 7 2 -9 -1 -21 -6 -26z m77 26 c5 4 12 2 16 -4 11 -18 -32 -11 -46 8
-13 15 -12 16 3 4 9 -8 22 -11 27 -8z m-759 -34 c0 -5 -2 -10 -4 -10 -3 0 -8
5 -11 10 -3 6 -1 10 4 10 6 0 11 -4 11 -10z m68 -105 c-3 -3 -9 2 -12 12 -6
14 -5 15 5 6 7 -7 10 -15 7 -18z m447 -35 c3 -5 -1 -10 -10 -10 -9 0 -13 5
-10 10 3 6 8 10 10 10 2 0 7 -4 10 -10z m-2845 -30 c0 -5 -7 -10 -16 -10 -8 0
-12 5 -9 10 3 6 10 10 16 10 5 0 9 -4 9 -10z m2757 -35 c0 -8 -6 -15 -13 -15
-8 0 -11 6 -8 15 4 8 9 15 13 15 4 0 8 -7 8 -15z"/>
<path d="M4022 914 c-7 -8 -8 -14 -3 -14 10 0 25 19 20 25 -2 1 -10 -3 -17
-11z"/>
<path d="M4256 513 c-6 -14 -5 -15 5 -6 7 7 10 15 7 18 -3 3 -9 -2 -12 -12z"/>
</g>
</svg>
