<svg xmlns="http://www.w3.org/2000/svg" xmlns:xlink="http://www.w3.org/1999/xlink" viewBox="0 0 343.55 436.22"><defs><style>.cls-1,.cls-15,.cls-17,.cls-2,.cls-3,.cls-35,.cls-37,.cls-4,.cls-5,.cls-53,.cls-6,.cls-7,.cls-9{fill:none;}.cls-1,.cls-15,.cls-17,.cls-3,.cls-35,.cls-37,.cls-4,.cls-5,.cls-53,.cls-6,.cls-7,.cls-9{stroke:#fff;stroke-miterlimit:10;}.cls-1{stroke-width:1.5px;}.cls-3{stroke-width:1.34px;}.cls-4{stroke-width:1.34px;}.cls-5{stroke-width:1.04px;}.cls-6{stroke-width:1.44px;}.cls-7{stroke-width:1.39px;}.cls-8{clip-path:url(#clip-path);}.cls-9{stroke-width:25.01px;}.cls-10{clip-path:url(#clip-path-2);}.cls-11{clip-path:url(#clip-path-3);}.cls-12{clip-path:url(#clip-path-4);}.cls-13{clip-path:url(#clip-path-5);}.cls-14{clip-path:url(#clip-path-6);}.cls-15{stroke-width:23.94px;}.cls-16{clip-path:url(#clip-path-7);}.cls-17{stroke-width:23.2px;}.cls-18{clip-path:url(#clip-path-8);}.cls-19{clip-path:url(#clip-path-9);}.cls-20{clip-path:url(#clip-path-10);}.cls-21{clip-path:url(#clip-path-11);}.cls-22{clip-path:url(#clip-path-12);}.cls-23{clip-path:url(#clip-path-13);}.cls-24{clip-path:url(#clip-path-14);}.cls-25{clip-path:url(#clip-path-15);}.cls-26{clip-path:url(#clip-path-16);}.cls-27{clip-path:url(#clip-path-17);}.cls-28{clip-path:url(#clip-path-18);}.cls-29{clip-path:url(#clip-path-19);}.cls-30{clip-path:url(#clip-path-20);}.cls-31{clip-path:url(#clip-path-21);}.cls-32{clip-path:url(#clip-path-22);}.cls-33{clip-path:url(#clip-path-23);}.cls-34{clip-path:url(#clip-path-24);}.cls-35{stroke-width:22.33px;}.cls-36{clip-path:url(#clip-path-25);}.cls-37{stroke-width:22.28px;}.cls-38{clip-path:url(#clip-path-26);}.cls-39{clip-path:url(#clip-path-27);}.cls-40{clip-path:url(#clip-path-28);}.cls-41{clip-path:url(#clip-path-29);}.cls-42{clip-path:url(#clip-path-30);}.cls-43{clip-path:url(#clip-path-31);}.cls-44{clip-path:url(#clip-path-32);}.cls-45{clip-path:url(#clip-path-33);}.cls-46{clip-path:url(#clip-path-34);}.cls-47{clip-path:url(#clip-path-35);}.cls-48{clip-path:url(#clip-path-36);}.cls-49{clip-path:url(#clip-path-37);}.cls-50{clip-path:url(#clip-path-38);}.cls-51{clip-path:url(#clip-path-39);}.cls-52{clip-path:url(#clip-path-40);}.cls-53{stroke-width:17.34px;}.cls-54{clip-path:url(#clip-path-41);}.cls-55{clip-path:url(#clip-path-42);}</style><clipPath id="clip-path" transform="translate(-249.22 -77.98)"><path class="cls-1" d="M433.22,454.31c1.53-107.9-14.89-216-9.33-323.9.14-2.78.27-5.7-1-8.18s-4.44-4.22-6.9-2.93-2.85,4.66-2.89,7.48c-.22,14.3-.88,30.57-.76,44.88l0,5.23q4.35,152.19,1.29,304.48c-.11,5.72-.92,19.42-.28,25.11.17,1.51,7.9,2.09,15.49.91a41.12,41.12,0,0,0,2.85-13C432.57,481.05,433,467.68,433.22,454.31Z"/></clipPath><clipPath id="clip-path-2" transform="translate(-249.22 -77.98)"><path class="cls-1" d="M494.1,223.11l.72-1.06c11-16.16,22.21-32.35,35.9-46.32,1.34,2.84-.77,6-2.7,8.51-7.74,9.94-14.34,20.7-20.93,31.43l-53.82,87.68c-8.82,13.45-16.5,26.14-25.75,39.88l-1.59-10.82a10.42,10.42,0,0,1,2.15-9.37Q460.41,272.63,494.1,223.11Z"/></clipPath><clipPath id="clip-path-3" transform="translate(-249.22 -77.98)"><path class="cls-1" d="M388.74,275.36c-24.74-25.23-49.22-50.72-72.64-77.17-3.39-3.82-6.75-7.66-10.41-11.22-.79-.77-1.88-1.58-2.89-1.15-1.61.69-.76,3.12.32,4.49q17.58,22.5,36.21,44.15c22,24.5,43.88,48.17,65.9,72.79,3.84,4.29,7.73,8.62,12.43,11.95.49-4.9.93-10.1-1.27-14.51a26.08,26.08,0,0,0-5.16-6.47Q400,286.81,388.74,275.36Z"/></clipPath><clipPath id="clip-path-4" transform="translate(-249.22 -77.98)"><path class="cls-1" d="M435.09,209.51,422.6,230.42a16.27,16.27,0,0,0-1.79,3.62,16.68,16.68,0,0,0-.48,5c0,4.6,0,12.38,0,17,9.47-19.56,19.43-38.85,30.05-57.81,6.29-9.82,12.75-22.79,19-32.61,1-1.6,2.1-3.37,1.91-5.27a1.82,1.82,0,0,0-.82-1.51c-.88-.44-1.85.37-2.49,1.12-10.77,12.46-19.28,26.68-27.72,40.82Z"/></clipPath><clipPath id="clip-path-5" transform="translate(-249.22 -77.98)"><path class="cls-1" d="M395.31,203.41c-6.34-8.32-13-16.43-19.21-24.85q-6.93-9.39-13.11-19.3a38.12,38.12,0,0,1-4.31-8.52c-.44-1.41-.63-3.18.49-4.13a2.84,2.84,0,0,1,3.29,0,8.39,8.39,0,0,1,2.33,2.62L380,172.32l15.13,19,2.35,2.95,14.54,18.24a21.87,21.87,0,0,1,4.08,6.62,19.08,19.08,0,0,1,.67,3.51,68.07,68.07,0,0,1,.45,9.25c0,.51-.21,1.19-.71,1.15a.9.9,0,0,1-.57-.39c-3.92-4.42-6.92-9.55-10.14-14.49S399,208.22,395.31,203.41Z"/></clipPath><clipPath id="clip-path-6" transform="translate(-249.22 -77.98)"><path class="cls-6" d="M431.07,120.83l.91-1.36c3.51-5.22,7-10.45,10.26-15.82,2.76-4.57,5.37-9.32,6.47-14.45.15-.71.13-1.65-.61-1.9a1.79,1.79,0,0,0-1.44.38c-4.65,3-7.64,7.59-10.49,12.07,0,0-4.71,6.39-6.07,8.54a101.61,101.61,0,0,0-7.45,10.48,16.6,16.6,0,0,0-1.49,2.58c-1,2.24-.88,4.73-.79,7.15l.29,7.19a42.06,42.06,0,0,0,4-5.38Z"/></clipPath><clipPath id="clip-path-7" transform="translate(-249.22 -77.98)"><path class="cls-7" d="M410.2,112.43c-2.31-4.23-4.68-8.42-7.22-12.5a89.1,89.1,0,0,0-5.6-8.11q-1.58-2-3.32-3.84c-.4-.43-.95-.89-1.49-.67s-.67.94-.65,1.54a15,15,0,0,0,.79,4c1.5,4.91,5.22,12.4,7.19,17.13,5.26,8.34,7.47,14.86,13.33,22.74.47-2.37.88-4.75,1.25-7.13a14.43,14.43,0,0,0,.24-2.93,14.32,14.32,0,0,0-2.14-5.88Q411.4,114.61,410.2,112.43Z"/></clipPath><clipPath id="clip-path-8" transform="translate(-249.22 -77.98)"><path class="cls-1" d="M508.06,242q-12.18,7-24.75,13.35a28.75,28.75,0,0,0-5.65,3.38,27.9,27.9,0,0,0-5.07,6.2,41.78,41.78,0,0,0-4.12,7.16c8.86-4,3.22-.91,35.28-19.81,0,0,1.5-.91,3.36-2.19,22.61-15.55,22.49-15.35,31.74-21.39a42.62,42.62,0,0,0,6.45-4.87c.35-.34.72-.82.55-1.28s-1.1-.54-1.72-.35c-7.24,2.24-13.73,6.36-20.18,10.33Q516.08,237.33,508.06,242Z"/></clipPath><clipPath id="clip-path-9" transform="translate(-249.22 -77.98)"><path class="cls-1" d="M480.78,242.61q-.52-11.94-1.65-23.86c-.38-4.12-.83-8.28-2.32-12.13-.38-1-1.16-2.1-2.16-1.84-.85.22-1.13,1.27-1.25,2.14a116.26,116.26,0,0,0-1,15.15c-.26,15.19-1.11,25,.25,37.66a52.15,52.15,0,0,0,7.25-11.62,11,11,0,0,0,.83-2.35,11.78,11.78,0,0,0,.11-2.85Z"/></clipPath><clipPath id="clip-path-10" transform="translate(-249.22 -77.98)"><path class="cls-1" d="M546,174.9l-14.4,6a15.38,15.38,0,0,0-2.69,1.35,13.42,13.42,0,0,0-2.27,2.06,60.85,60.85,0,0,0-7.13,9.32c8.91-5.74-2.34.35,4.79-3,2.27-1,17.47-7,30-13.2.81-.4,8.51-4.12,9-4.84a2.11,2.11,0,0,0,.14-2.51c-.67-.82-1.92-.74-2.95-.53a57,57,0,0,0-10.8,3.71Z"/></clipPath><clipPath id="clip-path-11" transform="translate(-249.22 -77.98)"><path class="cls-1" d="M527.69,169.86a140.31,140.31,0,0,0-2.7-17.53,11.51,11.51,0,0,0-1.39-3.9c-.4-.59-1.18-1.15-1.75-.73a1.47,1.47,0,0,0-.44,1.15c-.24,3.51-.16,7.94-.15,11.81a127.93,127.93,0,0,0,1.2,25.12,7.47,7.47,0,0,0,5-5.16,20.1,20.1,0,0,0,.51-7.42C527.87,172.08,527.79,171,527.69,169.86Z"/></clipPath><clipPath id="clip-path-12" transform="translate(-249.22 -77.98)"><path class="cls-1" d="M368.42,296.25c5.73-4.75,11.58-9.33,17.64-13.65a2.09,2.09,0,0,1,1.37-.55,1.87,1.87,0,0,1,.76.3,11.9,11.9,0,0,1,4.45,4.62,2.64,2.64,0,0,1,.4,1.93,2.84,2.84,0,0,1-1,1.23c-10.66,9.33-18.25,12.78-31.14,22.56-5.61,4.81-15.56,10.44-21.26,15.15a8.44,8.44,0,0,1-3.14,1.93,2.73,2.73,0,0,1-3.19-1.25,29.79,29.79,0,0,1,5.21-5.73C348.36,313.78,358.18,304.74,368.42,296.25Z"/></clipPath><clipPath id="clip-path-13" transform="translate(-249.22 -77.98)"><path class="cls-1" d="M385.81,264.45c-.44-12-1.59-23.91-2.74-35.84-.2-2.06-.49-4.3-2-5.74a1.72,1.72,0,0,0-1.05-.55c-.94,0-1.41,1.11-1.58,2a43.75,43.75,0,0,0-.7,9.14c-.46,11.91-1,25.74-1,25.74-.11,2.77-.2,5.64.78,8.24s3.12,4.86,5.16,6.93l3.27,3.3C386,273.29,386,268.87,385.81,264.45Z"/></clipPath><clipPath id="clip-path-14" transform="translate(-249.22 -77.98)"><path class="cls-1" d="M345.52,262.16c5.05-1.16,10.06-2.47,15-4a5.4,5.4,0,0,1,3.55-.29,5.22,5.22,0,0,1,1.68,1.28l6.16,6.15a34.79,34.79,0,0,1-8.13,2.07L285.6,280.52l-4.25.34c-1.06.08-2.31.08-3-.75,2.26-3.29,6.34-4.74,10.17-5.86C307.19,268.82,326.62,266.51,345.52,262.16Z"/></clipPath><clipPath id="clip-path-15" transform="translate(-249.22 -77.98)"><path class="cls-1" d="M315.23,178.46c.21-9.56.85-19.12,1.92-28.62.43-3.87.93-7.87-.21-11.59a.93.93,0,0,0-.41-.6c-.33-.14-.68.15-.92.43-2,2.42-2.67,5.69-3.24,8.8l-2.62,14.33q-1.63,13.51-2.16,27.14a5.86,5.86,0,0,0,.18,2.09,5.78,5.78,0,0,0,1,1.6c2.12,2.69,4.36,5.3,6.71,7.79Q315,189.15,315.23,178.46Z"/></clipPath><clipPath id="clip-path-16" transform="translate(-249.22 -77.98)"><path class="cls-1" d="M297.37,186.38l-3.32-1.68c-6.92-3.5-13.86-7-21.06-9.9a30.58,30.58,0,0,0-9.24-2.52,15.38,15.38,0,0,0-2.54,0,.92.92,0,0,0-.74.31c-.27.4.16.9.54,1.18a60.1,60.1,0,0,0,15.56,8.46c10.11,5.72,22.46,10.75,32.2,17a6.46,6.46,0,0,0,4.21.93,42,42,0,0,0-5.07-6.92,21.8,21.8,0,0,0-1.66-1.67,30.93,30.93,0,0,0-6.7-4.16Z"/></clipPath><clipPath id="clip-path-17" transform="translate(-249.22 -77.98)"><path class="cls-1" d="M473.74,158.85l.86-.73,9.6-8.11a18.14,18.14,0,0,1,4.84-3.28,1.21,1.21,0,0,1,.72-.12c.83.18.6,1.42.16,2.15a52.29,52.29,0,0,1-8.36,10.38l-2,1.93-.46.45c-4.48,4.42-9.1,8.93-14.85,11.48a28.32,28.32,0,0,1,7.36-12.21C472.28,160.11,473,159.48,473.74,158.85Z"/></clipPath><clipPath id="clip-path-18" transform="translate(-249.22 -77.98)"><path class="cls-1" d="M469,154c-.49-2.58-1.17-5.12-1.84-7.66a27,27,0,0,0-3-7.83,4.25,4.25,0,0,0-1.84-1.75,1.83,1.83,0,0,0-2.28.63,2.83,2.83,0,0,0-.18,1.56,91.24,91.24,0,0,0,1.59,12.09l2.34,10.35c.34,1.5.75,3.11,1.94,4.08,1.64-1.67,3.36-3.49,3.74-5.8a9.66,9.66,0,0,0-.05-2.84C469.34,155.91,469.18,155,469,154Z"/></clipPath><clipPath id="clip-path-19" transform="translate(-249.22 -77.98)"><path class="cls-1" d="M369.22,143.91q.36-8.9.23-17.81c0-1.72-.19-3.7-1.58-4.72a1.33,1.33,0,0,0-.86-.32c-.72,0-1.12.82-1.34,1.5a27.58,27.58,0,0,0-1.36,5.45c-.47,3.77-.92,7.27-.92,7.27-.46,3.66-1.44,7.32-1.05,11a14.93,14.93,0,0,0,5.27,9.78c.84-.49,1-1.62,1.07-2.59Q369,148.69,369.22,143.91Z"/></clipPath><clipPath id="clip-path-20" transform="translate(-249.22 -77.98)"><path class="cls-1" d="M362.26,158.61,354,157.44a20,20,0,0,1-3-.59,23.52,23.52,0,0,0-4.18-1.38,19.39,19.39,0,0,0-4.34.45,4.65,4.65,0,0,1-4.07-1.06,5.78,5.78,0,0,1,2.2-3.23,11.37,11.37,0,0,1,8-2.59,74.41,74.41,0,0,1,9.85,1.41,5.56,5.56,0,0,1,2,.73A5.73,5.73,0,0,1,362,153c.78,1.3,1.52,2.63,2.2,4a1.51,1.51,0,0,1,.23.89c-.12.79-1.21.88-2,.77Z"/></clipPath><clipPath id="clip-path-21" transform="translate(-249.22 -77.98)"><path class="cls-2" d="M554.87,297l-2.77-.47q-43.46-7.26-87.24-12.28a4,4,0,0,0-2.05.12,4,4,0,0,0-1.33,1.1L454,293.71c5.44.47,22.9,2.71,28.36,2.71,31.11,3.41,50.22,4.86,81.4,7.6,3.63.32,7.43.61,10.8-.79a1.23,1.23,0,0,0,.68-.54c.24-.59-.51-1.09-1.12-1.29A134.25,134.25,0,0,0,554.87,297Z"/></clipPath><clipPath id="clip-path-22" transform="translate(-249.22 -77.98)"><path class="cls-1" d="M518,324.87,502.4,296.21a5.12,5.12,0,0,0-1.18-1.61c-1.58-1.24-3.86-.24-5.58.79l1.12,2.4,5.14,9.15q6.94,12.39,14.76,24.28c1.65,2.51,3.53,5.16,6.36,6.16.64-2-.39-4.1-1.4-5.93Z"/></clipPath><clipPath id="clip-path-23" transform="translate(-249.22 -77.98)"><path class="cls-2" d="M541.5,285.56q5.37-9.48,10.12-19.3c.83-1.71,1.66-3.59,1.28-5.45a1.34,1.34,0,0,0-.38-.77c-.56-.5-1.43,0-2,.46-3.84,3.26-11,12.92-14.51,18.22-4.87,7.57-4.26,6.3-7.79,13.39a1.16,1.16,0,0,0-.18.78c.1.4.56.58,1,.68a21.81,21.81,0,0,0,6,.66,2.62,2.62,0,0,0,1.33-.29,2.76,2.76,0,0,0,.86-1Q539.41,289.26,541.5,285.56Z"/></clipPath><clipPath id="clip-path-24" transform="translate(-249.22 -77.98)"><path class="cls-3" d="M573.31,319.58q-.33-1.68-.69-3.36l-1-4.84a83.21,83.21,0,0,0-2.72-10.55c-.12-.33-.27-.7-.55-.8a.85.85,0,0,0-.6.09l-4,1.68.53,2.25a81.84,81.84,0,0,0,6.22,21.58,13.38,13.38,0,0,0,2.32,3.88c.34.35.85.65,1.18.3a1.36,1.36,0,0,0,.26-.64,13.42,13.42,0,0,0,0-4.05c-.16-1.38-.37-2.77-.61-4.14C573.49,320.51,573.4,320.05,573.31,319.58Z"/></clipPath><clipPath id="clip-path-25" transform="translate(-249.22 -77.98)"><path class="cls-4" d="M572.59,299.31c-.9.86-1.8,1.7-2.71,2.54a1.56,1.56,0,0,1-1.67.51,10.05,10.05,0,0,1-3.55-1.45c-.43-.3-.9-.78-.7-1.25a1.4,1.4,0,0,1,.39-.45q4.57-3.78,9.37-7.3,2.89-1.71,5.92-3.19c.53-.25,1.25-.48,1.65-.06a1,1,0,0,1,.2.8,3.78,3.78,0,0,1-1.16,1.93Q576.6,295.49,572.59,299.31Z"/></clipPath><clipPath id="clip-path-26" transform="translate(-249.22 -77.98)"><path class="cls-1" d="M549.4,226.26l-6.43-.59a3.49,3.49,0,0,0-.79,0,3.53,3.53,0,0,0-1.17.44l-6.13,3.22c-.29.16-.62.41-.55.73s.44.38.74.41q2.83.3,5.7.43c7.1.08,16.46-.27,18.54-.27a1.22,1.22,0,0,0,1.25-.87,1.16,1.16,0,0,0-.42-.94c-1.56-1.62-4-1.92-6.25-2.13Z"/></clipPath><clipPath id="clip-path-27" transform="translate(-249.22 -77.98)"><path class="cls-1" d="M543,221.45c0,.93,0,1.87,0,2.81a.76.76,0,0,1-.09.42.81.81,0,0,1-.33.28c-1.53.88-3.19,1.8-4.95,1.65a.36.36,0,0,1-.39-.42c-.32-3.81-.27,0-.08-9.18,0,0,.83-6.33,1.44-9a.78.78,0,0,1,.31-.53.62.62,0,0,1,.38,0,2.55,2.55,0,0,1,1.75,1.27,6.8,6.8,0,0,1,.74,2.11A51.58,51.58,0,0,1,543,221.45Z"/></clipPath><clipPath id="clip-path-28" transform="translate(-249.22 -77.98)"><path class="cls-1" d="M474.54,213.21a33.44,33.44,0,0,1,.21,7.75,1.07,1.07,0,0,1-.74-.46,61.07,61.07,0,0,1-8.49-11.25,17.69,17.69,0,0,1-3.29-8,.67.67,0,0,1,.94-.77c3.36.53,6,3.16,8,5.84a19.47,19.47,0,0,1,2.35,3.68A13.24,13.24,0,0,1,474.54,213.21Z"/></clipPath><clipPath id="clip-path-29" transform="translate(-249.22 -77.98)"><path class="cls-1" d="M475.65,205.69l.1-.24c.29-.68.71-1.31,1.06-2,.75-1.39,1.19-2.93,1.94-4.33a18.88,18.88,0,0,1,3.57-4.45,3,3,0,0,1,2.49-1.2,72,72,0,0,1-7.15,22.5,2.94,2.94,0,0,1-1.49,1.64q-.39-3.16-.76-6.34A12.32,12.32,0,0,1,475.65,205.69Z"/></clipPath><clipPath id="clip-path-30" transform="translate(-249.22 -77.98)"><path class="cls-1" d="M332.74,322.56l7.86.08a6.05,6.05,0,0,1-4,4.24,16.58,16.58,0,0,1-6,.72c-3.26,0-6.53-.15-9.78-.37l-11.64-2a2.07,2.07,0,0,1-1.59-.8,1.41,1.41,0,0,1,.69-1.79,4.07,4.07,0,0,1,2.08-.34Z"/></clipPath><clipPath id="clip-path-31" transform="translate(-249.22 -77.98)"><path class="cls-1" d="M335.22,344.35a190,190,0,0,0,5.29-19.8,15.93,15.93,0,0,0-5.52,3.23,3.58,3.58,0,0,0-.71.79,4.2,4.2,0,0,0-.47,1.53l-1,5.88-2.58,9c-1.05,3.68-2.11,7.5-1.53,11.28.06.33.18.73.52.81s.65-.3.83-.63A80,80,0,0,0,335.22,344.35Z"/></clipPath><clipPath id="clip-path-32" transform="translate(-249.22 -77.98)"><path class="cls-1" d="M378.23,226.64a13.6,13.6,0,0,0-1.56-2.06l-4.06-4.69a25.69,25.69,0,0,0-3.78-3.81,13.09,13.09,0,0,0-4-2.08,1.38,1.38,0,0,0-.72-.07c-.86.21-.59,1.5-.13,2.26,1.3,2.09,2.6,4.18,3.92,6.26q5.81,7.41,12,14.48a32.13,32.13,0,0,0-.5-6.71,11,11,0,0,0-1.13-3.5A.22.22,0,0,0,378.23,226.64Z"/></clipPath><clipPath id="clip-path-33" transform="translate(-249.22 -77.98)"><path class="cls-1" d="M381.34,222.28c.05-.16.1-.32.16-.48a27.47,27.47,0,0,1,1.87-3.91l2.59-4.74a5.47,5.47,0,0,1,1.82-2.23,1.42,1.42,0,0,1,1.13-.18c.79.27.87,1.35.78,2.18a61.77,61.77,0,0,1-5.53,19.66c-.57,1.55-1.19,3.07-1.85,4.58C381.08,232.28,379.85,227.06,381.34,222.28Z"/></clipPath><clipPath id="clip-path-34" transform="translate(-249.22 -77.98)"><path class="cls-1" d="M307.4,259.76c-6.3-7.37-11.36-15.74-17.31-23.4-1.15-1.47-3-3.06-4.63-2.09,2.11,5.11,4.86,9.31,7,13.48,0,0,2.06,3.84,3.79,6.42h0A139.39,139.39,0,0,0,306.45,272a3.1,3.1,0,0,0,1.21,1.25,3,3,0,0,0,2.12-.17l6-1.95c-1.37-4-4.5-7.06-7.3-10.21Z"/></clipPath><clipPath id="clip-path-35" transform="translate(-249.22 -77.98)"><path class="cls-1" d="M285.77,292q2.87-6.67,5.1-13.61c.14-.43.25-1-.08-1.29a1.29,1.29,0,0,0-1-.16l-4.2.56a2.17,2.17,0,0,0-1.07.33,2.21,2.21,0,0,0-.66,1.11A111.65,111.65,0,0,0,280.56,290a61.28,61.28,0,0,0-3.88,12.58c-.27,1.38-.45,2.95.41,4.07,2.1-1.23,3.36-3.48,4.46-5.66Q283.8,296.61,285.77,292Z"/></clipPath><clipPath id="clip-path-36" transform="translate(-249.22 -77.98)"><path class="cls-1" d="M277.51,269.72l-1.09-.88a109.73,109.73,0,0,0-10.72-8c-1.11-.69-2.45-1.37-3.67-.89a.87.87,0,0,0-.48.36c-.18.36.09.77.34,1.08a73.44,73.44,0,0,0,6,6.68l7.27,7.13,3.15,2.76a4.87,4.87,0,0,0,2.39,1.39c1.76.25,3.16-1.39,4.18-2.86a.74.74,0,0,0,.17-.52.65.65,0,0,0-.26-.31Z"/></clipPath><clipPath id="clip-path-37" transform="translate(-249.22 -77.98)"><path class="cls-1" d="M530,333a125.77,125.77,0,0,0-10.73-6.63L517,325.1c.65,5.77.7,5.69,5.25,9.09,4,2.48,13.33,9.06,17.5,11.33a1.27,1.27,0,0,0,.83.22c.77-.16.56-1.33.14-2A39.41,39.41,0,0,0,530,333Z"/></clipPath><clipPath id="clip-path-38" transform="translate(-249.22 -77.98)"><path class="cls-1" d="M515.58,348.64,520,336a5.21,5.21,0,0,0,.44-2.53c-.25-1.63-1.89-2.61-3.35-3.36a83.31,83.31,0,0,0-4,9.61,45.17,45.17,0,0,0-2.55,16,.94.94,0,0,0,.21.71c.33.31.86,0,1.2-.26a11.55,11.55,0,0,0,2.63-4.84Z"/></clipPath><clipPath id="clip-path-39" transform="translate(-249.22 -77.98)"><path class="cls-2" d="M555.4,263.13q5.07-3.67,10.43-6.94c.82-.5,2.06-.91,2.58-.1.39.62,0,1.42-.49,2a50.53,50.53,0,0,1-8.93,9.26l-1.86,1.5-.48.42a66.07,66.07,0,0,1-10.76,7.66c.09-2.45,2.1-4.33,3.14-6.55a25.64,25.64,0,0,1,1.34-3,10.11,10.11,0,0,1,2.48-2.4Q554.11,264.06,555.4,263.13Z"/></clipPath><clipPath id="clip-path-40" transform="translate(-249.22 -77.98)"><path class="cls-5" d="M547.61,263.46a34.52,34.52,0,0,0-4.92-12.6,2.13,2.13,0,0,0-.73-.78.6.6,0,0,0-.83.33,1.57,1.57,0,0,0,0,.75l1.37,7.13a104.65,104.65,0,0,0,3.46,13.36,11.21,11.21,0,0,0,2-5.12,11.37,11.37,0,0,0-.2-2.54Z"/></clipPath><clipPath id="clip-path-41" transform="translate(-249.22 -77.98)"><path class="cls-1" d="M289,238.85a7.66,7.66,0,0,0-1.73-1.86,9.09,9.09,0,0,0-1.82-1,63.48,63.48,0,0,0-11-3.69,11.85,11.85,0,0,0-4.3-.42c-.39.06-.84.19-1,.56a1.07,1.07,0,0,0,.09.8c1,2.24,3.58,3.29,5.61,4.35a74.29,74.29,0,0,0,18.26,9.23,24.27,24.27,0,0,0-3.36-6.83C289.51,239.63,289.26,239.23,289,238.85Z"/></clipPath><clipPath id="clip-path-42" transform="translate(-249.22 -77.98)"><path class="cls-1" d="M294.29,237.76c.17-2.42.18-4.85.19-7.27,0-3.86,0-7.72,0-11.58a2.79,2.79,0,0,0-.21-1.28,1,1,0,0,0-1.06-.57,1.38,1.38,0,0,0-.71.66,14.81,14.81,0,0,0-2,4.86l-.7,3.2c-.44,3-.77,6-1,9a5.38,5.38,0,0,0,0,1.7,5.1,5.1,0,0,0,.62,1.39,69.67,69.67,0,0,0,4,6.33A42.24,42.24,0,0,0,294.29,237.76Z"/></clipPath></defs><g id="Animation_1" data-name="Animation 1"><g class="cls-8"><path class="cls-9" d="M419.47,512.9c13.88-132.88-8.26-267.2.45-400.52" transform="translate(-249.22 -77.98)"/></g><path class="cls-1" d="M433.22,454.31c1.53-107.9-14.89-216-9.33-323.9.14-2.78.27-5.7-1-8.18s-4.44-4.22-6.9-2.93-2.85,4.66-2.89,7.48c-.22,14.3-.88,30.57-.76,44.88l0,5.23q4.35,152.19,1.29,304.48c-.11,5.72-.92,19.42-.28,25.11.17,1.51,7.9,2.09,15.49.91a41.12,41.12,0,0,0,2.85-13C432.57,481.05,433,467.68,433.22,454.31Z" transform="translate(-249.22 -77.98)"/></g><g id="Animation_2" data-name="Animation 2"><g class="cls-10"><path class="cls-9" d="M420,343.24c16.32-20,29.64-42.31,43.1-64.38,22.54-37,45.69-73.64,72.49-107.62" transform="translate(-249.22 -77.98)"/></g><path class="cls-1" d="M494.1,223.11l.72-1.06c11-16.16,22.21-32.35,35.9-46.32,1.34,2.84-.77,6-2.7,8.51-7.74,9.94-14.34,20.7-20.93,31.43l-53.82,87.68c-8.82,13.45-16.5,26.14-25.75,39.88l-1.59-10.82a10.42,10.42,0,0,1,2.15-9.37Q460.41,272.63,494.1,223.11Z" transform="translate(-249.22 -77.98)"/><g class="cls-11"><path class="cls-9" d="M428.69,323a1175.26,1175.26,0,0,1-129.8-143.34" transform="translate(-249.22 -77.98)"/></g><path class="cls-1" d="M388.74,275.36c-24.74-25.23-49.22-50.72-72.64-77.17-3.39-3.82-6.75-7.66-10.41-11.22-.79-.77-1.88-1.58-2.89-1.15-1.61.69-.76,3.12.32,4.49q17.58,22.5,36.21,44.15c22,24.5,43.88,48.17,65.9,72.79,3.84,4.29,7.73,8.62,12.43,11.95.49-4.9.93-10.1-1.27-14.51a26.08,26.08,0,0,0-5.16-6.47Q400,286.81,388.74,275.36Z" transform="translate(-249.22 -77.98)"/><g class="cls-12"><path class="cls-9" d="M470.34,156.61c-4.73,2.78-7.7,7.72-10.47,12.46L410.11,254" transform="translate(-249.22 -77.98)"/></g><path class="cls-1" d="M435.09,209.51,422.6,230.42a16.27,16.27,0,0,0-1.79,3.62,16.68,16.68,0,0,0-.48,5c0,4.6,0,12.38,0,17,9.47-19.56,19.43-38.85,30.05-57.81,6.29-9.82,12.75-22.79,19-32.61,1-1.6,2.1-3.37,1.91-5.27a1.82,1.82,0,0,0-.82-1.51c-.88-.44-1.85.37-2.49,1.12-10.77,12.46-19.28,26.68-27.72,40.82Z" transform="translate(-249.22 -77.98)"/><g class="cls-13"><path class="cls-9" d="M355.32,143.25q32.9,48,70.45,92.62" transform="translate(-249.22 -77.98)"/></g><path class="cls-1" d="M395.31,203.41c-6.34-8.32-13-16.43-19.21-24.85q-6.93-9.39-13.11-19.3a38.12,38.12,0,0,1-4.31-8.52c-.44-1.41-.63-3.18.49-4.13a2.84,2.84,0,0,1,3.29,0,8.39,8.39,0,0,1,2.33,2.62L380,172.32l15.13,19,2.35,2.95,14.54,18.24a21.87,21.87,0,0,1,4.08,6.62,19.08,19.08,0,0,1,.67,3.51,68.07,68.07,0,0,1,.45,9.25c0,.51-.21,1.19-.71,1.15a.9.9,0,0,1-.57-.39c-3.92-4.42-6.92-9.55-10.14-14.49S399,208.22,395.31,203.41Z" transform="translate(-249.22 -77.98)"/><g class="cls-14"><path class="cls-15" d="M413.6,140.76q19-27.81,36-56.71" transform="translate(-249.22 -77.98)"/></g><path class="cls-6" d="M431.07,120.83l.91-1.36c3.51-5.22,7-10.45,10.26-15.82,2.76-4.57,5.37-9.32,6.47-14.45.15-.71.13-1.65-.61-1.9a1.79,1.79,0,0,0-1.44.38c-4.65,3-7.64,7.59-10.49,12.07,0,0-4.71,6.39-6.07,8.54a101.61,101.61,0,0,0-7.45,10.48,16.6,16.6,0,0,0-1.49,2.58c-1,2.24-.88,4.73-.79,7.15l.29,7.19a42.06,42.06,0,0,0,4-5.38Z" transform="translate(-249.22 -77.98)"/><g class="cls-16"><path class="cls-17" d="M390,83.37l28.36,54.2" transform="translate(-249.22 -77.98)"/></g><path class="cls-7" d="M410.2,112.43c-2.31-4.23-4.68-8.42-7.22-12.5a89.1,89.1,0,0,0-5.6-8.11q-1.58-2-3.32-3.84c-.4-.43-.95-.89-1.49-.67s-.67.94-.65,1.54a15,15,0,0,0,.79,4c1.5,4.91,5.22,12.4,7.19,17.13,5.26,8.34,7.47,14.86,13.33,22.74.47-2.37.88-4.75,1.25-7.13a14.43,14.43,0,0,0,.24-2.93,14.32,14.32,0,0,0-2.14-5.88Q411.4,114.61,410.2,112.43Z" transform="translate(-249.22 -77.98)"/></g><g id="Animation_3" data-name="Animation 3"><g class="cls-18"><path class="cls-9" d="M464.14,270.74l86.09-47.41" transform="translate(-249.22 -77.98)"/></g><path class="cls-1" d="M508.06,242q-12.18,7-24.75,13.35a28.75,28.75,0,0,0-5.65,3.38,27.9,27.9,0,0,0-5.07,6.2,41.78,41.78,0,0,0-4.12,7.16c8.86-4,3.22-.91,35.28-19.81,0,0,1.5-.91,3.36-2.19,22.61-15.55,22.49-15.35,31.74-21.39a42.62,42.62,0,0,0,6.45-4.87c.35-.34.72-.82.55-1.28s-1.1-.54-1.72-.35c-7.24,2.24-13.73,6.36-20.18,10.33Q516.08,237.33,508.06,242Z" transform="translate(-249.22 -77.98)"/><g class="cls-19"><path class="cls-9" d="M471.86,199.77l7.51,65.35" transform="translate(-249.22 -77.98)"/></g><path class="cls-1" d="M480.78,242.61q-.52-11.94-1.65-23.86c-.38-4.12-.83-8.28-2.32-12.13-.38-1-1.16-2.1-2.16-1.84-.85.22-1.13,1.27-1.25,2.14a116.26,116.26,0,0,0-1,15.15c-.26,15.19-1.11,25,.25,37.66a52.15,52.15,0,0,0,7.25-11.62,11,11,0,0,0,.83-2.35,11.78,11.78,0,0,0,.11-2.85Z" transform="translate(-249.22 -77.98)"/><g class="cls-20"><path class="cls-9" d="M513.28,195.19q28.14-11.66,56.9-21.72" transform="translate(-249.22 -77.98)"/></g><path class="cls-1" d="M546,174.9l-14.4,6a15.38,15.38,0,0,0-2.69,1.35,13.42,13.42,0,0,0-2.27,2.06,60.85,60.85,0,0,0-7.13,9.32c8.91-5.74-2.34.35,4.79-3,2.27-1,17.47-7,30-13.2.81-.4,8.51-4.12,9-4.84a2.11,2.11,0,0,0,.14-2.51c-.67-.82-1.92-.74-2.95-.53a57,57,0,0,0-10.8,3.71Z" transform="translate(-249.22 -77.98)"/><g class="cls-21"><path class="cls-9" d="M521,142.08l6.25,53.62" transform="translate(-249.22 -77.98)"/></g><path class="cls-1" d="M527.69,169.86a140.31,140.31,0,0,0-2.7-17.53,11.51,11.51,0,0,0-1.39-3.9c-.4-.59-1.18-1.15-1.75-.73a1.47,1.47,0,0,0-.44,1.15c-.24,3.51-.16,7.94-.15,11.81a127.93,127.93,0,0,0,1.2,25.12,7.47,7.47,0,0,0,5-5.16,20.1,20.1,0,0,0,.51-7.42C527.87,172.08,527.79,171,527.69,169.86Z" transform="translate(-249.22 -77.98)"/><g class="cls-22"><path class="cls-9" d="M331.76,330.14q30.76-25.08,62.93-48.36" transform="translate(-249.22 -77.98)"/></g><path class="cls-1" d="M368.42,296.25c5.73-4.75,11.58-9.33,17.64-13.65a2.09,2.09,0,0,1,1.37-.55,1.87,1.87,0,0,1,.76.3,11.9,11.9,0,0,1,4.45,4.62,2.64,2.64,0,0,1,.4,1.93,2.84,2.84,0,0,1-1,1.23c-10.66,9.33-18.25,12.78-31.14,22.56-5.61,4.81-15.56,10.44-21.26,15.15a8.44,8.44,0,0,1-3.14,1.93,2.73,2.73,0,0,1-3.19-1.25,29.79,29.79,0,0,1,5.21-5.73C348.36,313.78,358.18,304.74,368.42,296.25Z" transform="translate(-249.22 -77.98)"/><g class="cls-23"><path class="cls-9" d="M379.7,217.69q1.56,33.66,4.78,67.18" transform="translate(-249.22 -77.98)"/></g><path class="cls-1" d="M385.81,264.45c-.44-12-1.59-23.91-2.74-35.84-.2-2.06-.49-4.3-2-5.74a1.72,1.72,0,0,0-1.05-.55c-.94,0-1.41,1.11-1.58,2a43.75,43.75,0,0,0-.7,9.14c-.46,11.91-1,25.74-1,25.74-.11,2.77-.2,5.64.78,8.24s3.12,4.86,5.16,6.93l3.27,3.3C386,273.29,386,268.87,385.81,264.45Z" transform="translate(-249.22 -77.98)"/><g class="cls-24"><path class="cls-9" d="M274.38,285.27,297.17,280c26.49-6.14,53.05-12.3,78.73-22.34" transform="translate(-249.22 -77.98)"/></g><path class="cls-1" d="M345.52,262.16c5.05-1.16,10.06-2.47,15-4a5.4,5.4,0,0,1,3.55-.29,5.22,5.22,0,0,1,1.68,1.28l6.16,6.15a34.79,34.79,0,0,1-8.13,2.07L285.6,280.52l-4.25.34c-1.06.08-2.31.08-3-.75,2.26-3.29,6.34-4.74,10.17-5.86C307.19,268.82,326.62,266.51,345.52,262.16Z" transform="translate(-249.22 -77.98)"/><g class="cls-25"><path class="cls-9" d="M311,209.56c.26-25.29,1.74-50.56,4.43-75.63" transform="translate(-249.22 -77.98)"/></g><path class="cls-1" d="M315.23,178.46c.21-9.56.85-19.12,1.92-28.62.43-3.87.93-7.87-.21-11.59a.93.93,0,0,0-.41-.6c-.33-.14-.68.15-.92.43-2,2.42-2.67,5.69-3.24,8.8l-2.62,14.33q-1.63,13.51-2.16,27.14a5.86,5.86,0,0,0,.18,2.09,5.78,5.78,0,0,0,1,1.6c2.12,2.69,4.36,5.3,6.71,7.79Q315,189.15,315.23,178.46Z" transform="translate(-249.22 -77.98)"/><g class="cls-26"><path class="cls-9" d="M255.17,174.44a626.85,626.85,0,0,1,63,27.95" transform="translate(-249.22 -77.98)"/></g><path class="cls-1" d="M297.37,186.38l-3.32-1.68c-6.92-3.5-13.86-7-21.06-9.9a30.58,30.58,0,0,0-9.24-2.52,15.38,15.38,0,0,0-2.54,0,.92.92,0,0,0-.74.31c-.27.4.16.9.54,1.18a60.1,60.1,0,0,0,15.56,8.46c10.11,5.72,22.46,10.75,32.2,17a6.46,6.46,0,0,0,4.21.93,42,42,0,0,0-5.07-6.92,21.8,21.8,0,0,0-1.66-1.67,30.93,30.93,0,0,0-6.7-4.16Z" transform="translate(-249.22 -77.98)"/><g class="cls-27"><path class="cls-9" d="M460,178.2l34.71-31.61" transform="translate(-249.22 -77.98)"/></g><path class="cls-1" d="M473.74,158.85l.86-.73,9.6-8.11a18.14,18.14,0,0,1,4.84-3.28,1.21,1.21,0,0,1,.72-.12c.83.18.6,1.42.16,2.15a52.29,52.29,0,0,1-8.36,10.38l-2,1.93-.46.45c-4.48,4.42-9.1,8.93-14.85,11.48a28.32,28.32,0,0,1,7.36-12.21C472.28,160.11,473,159.48,473.74,158.85Z" transform="translate(-249.22 -77.98)"/><g class="cls-28"><path class="cls-9" d="M459.3,131.05c-1.46,15,8,27.09,13.41,40.1" transform="translate(-249.22 -77.98)"/></g><path class="cls-1" d="M469,154c-.49-2.58-1.17-5.12-1.84-7.66a27,27,0,0,0-3-7.83,4.25,4.25,0,0,0-1.84-1.75,1.83,1.83,0,0,0-2.28.63,2.83,2.83,0,0,0-.18,1.56,91.24,91.24,0,0,0,1.59,12.09l2.34,10.35c.34,1.5.75,3.11,1.94,4.08,1.64-1.67,3.36-3.49,3.74-5.8a9.66,9.66,0,0,0-.05-2.84C469.34,155.91,469.18,155,469,154Z" transform="translate(-249.22 -77.98)"/><g class="cls-29"><path class="cls-9" d="M366.25,160.28l1-43.45" transform="translate(-249.22 -77.98)"/></g><path class="cls-1" d="M369.22,143.91q.36-8.9.23-17.81c0-1.72-.19-3.7-1.58-4.72a1.33,1.33,0,0,0-.86-.32c-.72,0-1.12.82-1.34,1.5a27.58,27.58,0,0,0-1.36,5.45c-.47,3.77-.92,7.27-.92,7.27-.46,3.66-1.44,7.32-1.05,11a14.93,14.93,0,0,0,5.27,9.78c.84-.49,1-1.62,1.07-2.59Q369,148.69,369.22,143.91Z" transform="translate(-249.22 -77.98)"/><g class="cls-30"><path class="cls-9" d="M369.15,156.86a227.85,227.85,0,0,0-35.43-2.92" transform="translate(-249.22 -77.98)"/></g><path class="cls-1" d="M362.26,158.61,354,157.44a20,20,0,0,1-3-.59,23.52,23.52,0,0,0-4.18-1.38,19.39,19.39,0,0,0-4.34.45,4.65,4.65,0,0,1-4.07-1.06,5.78,5.78,0,0,1,2.2-3.23,11.37,11.37,0,0,1,8-2.59,74.41,74.41,0,0,1,9.85,1.41,5.56,5.56,0,0,1,2,.73A5.73,5.73,0,0,1,362,153c.78,1.3,1.52,2.63,2.2,4a1.51,1.51,0,0,1,.23.89c-.12.79-1.21.88-2,.77Z" transform="translate(-249.22 -77.98)"/><g class="cls-31"><path class="cls-9" d="M453.78,288.73q63.38,7.9,126.92,14.15" transform="translate(-249.22 -77.98)"/></g></g><g id="Animation_4" data-name="Animation 4"><g class="cls-32"><path class="cls-9" d="M494.12,289.47C499.44,300,505.7,310,512,320l4.25,6.79c3.4,5.44,6.89,11,11.82,15.15" transform="translate(-249.22 -77.98)"/></g><path class="cls-1" d="M518,324.87,502.4,296.21a5.12,5.12,0,0,0-1.18-1.61c-1.58-1.24-3.86-.24-5.58.79l1.12,2.4,5.14,9.15q6.94,12.39,14.76,24.28c1.65,2.51,3.53,5.16,6.36,6.16.64-2-.39-4.1-1.4-5.93Z" transform="translate(-249.22 -77.98)"/><g class="cls-33"><path class="cls-9" d="M530.64,303.27a232.24,232.24,0,0,1,28.65-46.34" transform="translate(-249.22 -77.98)"/></g><g class="cls-34"><path class="cls-35" d="M564.15,295.8l9.74,38.37" transform="translate(-249.22 -77.98)"/></g><path class="cls-3" d="M573.31,319.58q-.33-1.68-.69-3.36l-1-4.84a83.21,83.21,0,0,0-2.72-10.55c-.12-.33-.27-.7-.55-.8a.85.85,0,0,0-.6.09l-4,1.68.53,2.25a81.84,81.84,0,0,0,6.22,21.58,13.38,13.38,0,0,0,2.32,3.88c.34.35.85.65,1.18.3a1.36,1.36,0,0,0,.26-.64,13.42,13.42,0,0,0,0-4.05c-.16-1.38-.37-2.77-.61-4.14C573.49,320.51,573.4,320.05,573.31,319.58Z" transform="translate(-249.22 -77.98)"/><g class="cls-36"><path class="cls-37" d="M561.55,307.37a110.5,110.5,0,0,1,25.22-22.11" transform="translate(-249.22 -77.98)"/></g><path class="cls-4" d="M572.59,299.31c-.9.86-1.8,1.7-2.71,2.54a1.56,1.56,0,0,1-1.67.51,10.05,10.05,0,0,1-3.55-1.45c-.43-.3-.9-.78-.7-1.25a1.4,1.4,0,0,1,.39-.45q4.57-3.78,9.37-7.3,2.89-1.71,5.92-3.19c.53-.25,1.25-.48,1.65-.06a1,1,0,0,1,.2.8,3.78,3.78,0,0,1-1.16,1.93Q576.6,295.49,572.59,299.31Z" transform="translate(-249.22 -77.98)"/><g class="cls-38"><path class="cls-9" d="M528.65,229.44a207.87,207.87,0,0,0,37.18,1.32" transform="translate(-249.22 -77.98)"/></g><path class="cls-1" d="M549.4,226.26l-6.43-.59a3.49,3.49,0,0,0-.79,0,3.53,3.53,0,0,0-1.17.44l-6.13,3.22c-.29.16-.62.41-.55.73s.44.38.74.41q2.83.3,5.7.43c7.1.08,16.46-.27,18.54-.27a1.22,1.22,0,0,0,1.25-.87,1.16,1.16,0,0,0-.42-.94c-1.56-1.62-4-1.92-6.25-2.13Z" transform="translate(-249.22 -77.98)"/><g class="cls-39"><path class="cls-9" d="M539.11,202.75l.7,28.79" transform="translate(-249.22 -77.98)"/></g><path class="cls-1" d="M543,221.45c0,.93,0,1.87,0,2.81a.76.76,0,0,1-.09.42.81.81,0,0,1-.33.28c-1.53.88-3.19,1.8-4.95,1.65a.36.36,0,0,1-.39-.42c-.32-3.81-.27,0-.08-9.18,0,0,.83-6.33,1.44-9a.78.78,0,0,1,.31-.53.62.62,0,0,1,.38,0,2.55,2.55,0,0,1,1.75,1.27,6.8,6.8,0,0,1,.74,2.11A51.58,51.58,0,0,1,543,221.45Z" transform="translate(-249.22 -77.98)"/><g class="cls-40"><path class="cls-9" d="M457.07,197.52l21.85,27.81" transform="translate(-249.22 -77.98)"/></g><path class="cls-1" d="M474.54,213.21a33.44,33.44,0,0,1,.21,7.75,1.07,1.07,0,0,1-.74-.46,61.07,61.07,0,0,1-8.49-11.25,17.69,17.69,0,0,1-3.29-8,.67.67,0,0,1,.94-.77c3.36.53,6,3.16,8,5.84a19.47,19.47,0,0,1,2.35,3.68A13.24,13.24,0,0,1,474.54,213.21Z" transform="translate(-249.22 -77.98)"/><g class="cls-41"><path class="cls-9" d="M478.22,225.82a149.91,149.91,0,0,1,8.4-36.16" transform="translate(-249.22 -77.98)"/></g><path class="cls-1" d="M475.65,205.69l.1-.24c.29-.68.71-1.31,1.06-2,.75-1.39,1.19-2.93,1.94-4.33a18.88,18.88,0,0,1,3.57-4.45,3,3,0,0,1,2.49-1.2,72,72,0,0,1-7.15,22.5,2.94,2.94,0,0,1-1.49,1.64q-.39-3.16-.76-6.34A12.32,12.32,0,0,1,475.65,205.69Z" transform="translate(-249.22 -77.98)"/><g class="cls-42"><path class="cls-9" d="M304.45,325.47a274.15,274.15,0,0,0,40.62,1.16" transform="translate(-249.22 -77.98)"/></g><path class="cls-1" d="M332.74,322.56l7.86.08a6.05,6.05,0,0,1-4,4.24,16.58,16.58,0,0,1-6,.72c-3.26,0-6.53-.15-9.78-.37l-11.64-2a2.07,2.07,0,0,1-1.59-.8,1.41,1.41,0,0,1,.69-1.79,4.07,4.07,0,0,1,2.08-.34Z" transform="translate(-249.22 -77.98)"/><g class="cls-43"><path class="cls-9" d="M338.05,317.28q-3.3,27.59-8.25,54.74" transform="translate(-249.22 -77.98)"/></g><path class="cls-1" d="M335.22,344.35a190,190,0,0,0,5.29-19.8,15.93,15.93,0,0,0-5.52,3.23,3.58,3.58,0,0,0-.71.79,4.2,4.2,0,0,0-.47,1.53l-1,5.88-2.58,9c-1.05,3.68-2.11,7.5-1.53,11.28.06.33.18.73.52.81s.65-.3.83-.63A80,80,0,0,0,335.22,344.35Z" transform="translate(-249.22 -77.98)"/><g class="cls-44"><path class="cls-9" d="M360.76,211.52a186,186,0,0,0,27.3,29.61" transform="translate(-249.22 -77.98)"/></g><path class="cls-1" d="M378.23,226.64a13.6,13.6,0,0,0-1.56-2.06l-4.06-4.69a25.69,25.69,0,0,0-3.78-3.81,13.09,13.09,0,0,0-4-2.08,1.38,1.38,0,0,0-.72-.07c-.86.21-.59,1.5-.13,2.26,1.3,2.09,2.6,4.18,3.92,6.26q5.81,7.41,12,14.48a32.13,32.13,0,0,0-.5-6.71,11,11,0,0,0-1.13-3.5A.22.22,0,0,0,378.23,226.64Z" transform="translate(-249.22 -77.98)"/><g class="cls-45"><path class="cls-9" d="M382.28,248.68l1.62-10.38,4.92-31.49" transform="translate(-249.22 -77.98)"/></g><path class="cls-1" d="M381.34,222.28c.05-.16.1-.32.16-.48a27.47,27.47,0,0,1,1.87-3.91l2.59-4.74a5.47,5.47,0,0,1,1.82-2.23,1.42,1.42,0,0,1,1.13-.18c.79.27.87,1.35.78,2.18a61.77,61.77,0,0,1-5.53,19.66c-.57,1.55-1.19,3.07-1.85,4.58C381.08,232.28,379.85,227.06,381.34,222.28Z" transform="translate(-249.22 -77.98)"/><g class="cls-46"><path class="cls-9" d="M281.75,230.46l14.12,21.62c6.41,9.82,12.83,19.64,19.87,29.12" transform="translate(-249.22 -77.98)"/></g><path class="cls-1" d="M307.4,259.76c-6.3-7.37-11.36-15.74-17.31-23.4-1.15-1.47-3-3.06-4.63-2.09,2.11,5.11,4.86,9.31,7,13.48,0,0,2.06,3.84,3.79,6.42h0A139.39,139.39,0,0,0,306.45,272a3.1,3.1,0,0,0,1.21,1.25,3,3,0,0,0,2.12-.17l6-1.95c-1.37-4-4.5-7.06-7.3-10.21Z" transform="translate(-249.22 -77.98)"/><g class="cls-47"><path class="cls-9" d="M287.44,272.12c1.75,4.38.48,9.41-.8,14l-8.46,30.1" transform="translate(-249.22 -77.98)"/></g><path class="cls-1" d="M285.77,292q2.87-6.67,5.1-13.61c.14-.43.25-1-.08-1.29a1.29,1.29,0,0,0-1-.16l-4.2.56a2.17,2.17,0,0,0-1.07.33,2.21,2.21,0,0,0-.66,1.11A111.65,111.65,0,0,0,280.56,290a61.28,61.28,0,0,0-3.88,12.58c-.27,1.38-.45,2.95.41,4.07,2.1-1.23,3.36-3.48,4.46-5.66Q283.8,296.61,285.77,292Z" transform="translate(-249.22 -77.98)"/><g class="cls-48"><path class="cls-9" d="M258.78,259.79l13.44,15.93a139.81,139.81,0,0,0,12.87,13.94" transform="translate(-249.22 -77.98)"/></g><path class="cls-1" d="M277.51,269.72l-1.09-.88a109.73,109.73,0,0,0-10.72-8c-1.11-.69-2.45-1.37-3.67-.89a.87.87,0,0,0-.48.36c-.18.36.09.77.34,1.08a73.44,73.44,0,0,0,6,6.68l7.27,7.13,3.15,2.76a4.87,4.87,0,0,0,2.39,1.39c1.76.25,3.16-1.39,4.18-2.86a.74.74,0,0,0,.17-.52.65.65,0,0,0-.26-.31Z" transform="translate(-249.22 -77.98)"/></g><g id="Animation_5" data-name="Animation 5"><g class="cls-49"><path class="cls-9" d="M513.77,322.47c1.9,3.3,4.74,5.74,7.53,8.11l24.21,20.6" transform="translate(-249.22 -77.98)"/></g><path class="cls-1" d="M530,333a125.77,125.77,0,0,0-10.73-6.63L517,325.1c.65,5.77.7,5.69,5.25,9.09,4,2.48,13.33,9.06,17.5,11.33a1.27,1.27,0,0,0,.83.22c.77-.16.56-1.33.14-2A39.41,39.41,0,0,0,530,333Z" transform="translate(-249.22 -77.98)"/><g class="cls-50"><path class="cls-9" d="M521.2,326.06a220.17,220.17,0,0,0-11.36,34.63" transform="translate(-249.22 -77.98)"/></g><path class="cls-1" d="M515.58,348.64,520,336a5.21,5.21,0,0,0,.44-2.53c-.25-1.63-1.89-2.61-3.35-3.36a83.31,83.31,0,0,0-4,9.61,45.17,45.17,0,0,0-2.55,16,.94.94,0,0,0,.21.71c.33.31.86,0,1.2-.26a11.55,11.55,0,0,0,2.63-4.84Z" transform="translate(-249.22 -77.98)"/><g class="cls-51"><path class="cls-9" d="M538.71,279.15q16.37-10.8,31.95-23" transform="translate(-249.22 -77.98)"/></g><g class="cls-52"><path class="cls-53" d="M539.66,248q4.44,13.14,9.66,25.68" transform="translate(-249.22 -77.98)"/></g><path class="cls-5" d="M547.61,263.46a34.52,34.52,0,0,0-4.92-12.6,2.13,2.13,0,0,0-.73-.78.6.6,0,0,0-.83.33,1.57,1.57,0,0,0,0,.75l1.37,7.13a104.65,104.65,0,0,0,3.46,13.36,11.21,11.21,0,0,0,2-5.12,11.37,11.37,0,0,0-.2-2.54Z" transform="translate(-249.22 -77.98)"/><g class="cls-54"><path class="cls-9" d="M263.75,231.88a143.73,143.73,0,0,0,35.14,18.28" transform="translate(-249.22 -77.98)"/></g><path class="cls-1" d="M289,238.85a7.66,7.66,0,0,0-1.73-1.86,9.09,9.09,0,0,0-1.82-1,63.48,63.48,0,0,0-11-3.69,11.85,11.85,0,0,0-4.3-.42c-.39.06-.84.19-1,.56a1.07,1.07,0,0,0,.09.8c1,2.24,3.58,3.29,5.61,4.35a74.29,74.29,0,0,0,18.26,9.23,24.27,24.27,0,0,0-3.36-6.83C289.51,239.63,289.26,239.23,289,238.85Z" transform="translate(-249.22 -77.98)"/><g class="cls-55"><path class="cls-9" d="M291.64,248.45l5.7-35" transform="translate(-249.22 -77.98)"/></g><path class="cls-1" d="M294.29,237.76c.17-2.42.18-4.85.19-7.27,0-3.86,0-7.72,0-11.58a2.79,2.79,0,0,0-.21-1.28,1,1,0,0,0-1.06-.57,1.38,1.38,0,0,0-.71.66,14.81,14.81,0,0,0-2,4.86l-.7,3.2c-.44,3-.77,6-1,9a5.38,5.38,0,0,0,0,1.7,5.1,5.1,0,0,0,.62,1.39,69.67,69.67,0,0,0,4,6.33A42.24,42.24,0,0,0,294.29,237.76Z" transform="translate(-249.22 -77.98)"/></g></svg>